<?xml version="1.0" encoding="UTF-8" standalone="no"?>
<svg
   viewBox="0 0 228.66 39.08"
   version="1.1"
   id="svg40"
   sodipodi:docname="navbar-logo.svg"
   inkscape:export-filename="/Users/studiomiranda/Desktop/bitmap.png"
   inkscape:export-xdpi="107"
   inkscape:export-ydpi="107"
   inkscape:version="1.2.2 (b0a8486, 2022-12-01)"
   xmlns:inkscape="http://www.inkscape.org/namespaces/inkscape"
   xmlns:sodipodi="http://sodipodi.sourceforge.net/DTD/sodipodi-0.dtd"
   xmlns="http://www.w3.org/2000/svg"
   xmlns:svg="http://www.w3.org/2000/svg"
   xmlns:rdf="http://www.w3.org/1999/02/22-rdf-syntax-ns#"
   xmlns:cc="http://creativecommons.org/ns#"
   xmlns:dc="http://purl.org/dc/elements/1.1/">
  <metadata
     id="metadata46">
    <rdf:RDF>
      <cc:Work
         rdf:about="">
        <dc:format>image/svg+xml</dc:format>
        <dc:type
           rdf:resource="http://purl.org/dc/dcmitype/StillImage" />
        <dc:title />
      </cc:Work>
    </rdf:RDF>
  </metadata>
  <defs
     id="defs44" />
  <sodipodi:namedview
     pagecolor="#ffffff"
     bordercolor="#666666"
     borderopacity="1"
     objecttolerance="10"
     gridtolerance="10"
     guidetolerance="10"
     inkscape:pageopacity="0"
     inkscape:pageshadow="2"
     inkscape:window-width="1280"
     inkscape:window-height="678"
     id="namedview42"
     showgrid="false"
     inkscape:zoom="2.7945421"
     inkscape:cx="104.13155"
     inkscape:cy="47.950611"
     inkscape:window-x="0"
     inkscape:window-y="23"
     inkscape:window-maximized="0"
     inkscape:current-layer="svg40"
     inkscape:showpageshadow="2"
     inkscape:pagecheckerboard="0"
     inkscape:deskcolor="#d1d1d1" />
  <style
     id="style10">.cls-1{fill:#fed136;}</style>
  <path
     style="fill:#ffffff;stroke-width:0.265274"
     d="M 10.778251,38.528934 C 9.6098623,38.259639 8.5942573,37.577305 8.2440873,36.826357 c -0.391001,-0.83851 0.2173,-2.53921 1.7901857,-5.005037 2.242211,-3.515137 2.663906,-4.67069 2.673958,-7.327344 0.01052,-2.779192 -0.372505,-3.883629 -1.505942,-4.342368 -0.71197,-0.288157 -1.078062,-0.219646 -3.3986057,0.636022 -4.6804557,1.725851 -6.2235869,1.212871 -6.2235869,-2.068894 0,-4.624396 3.1145589,-14.2973444 5.4859799,-17.0379184 l 0.680699,-0.78665996 0.807924,0.85635196 c 1.089565,1.154876 1.05001,1.786325 -0.415579,6.634218 -1.236236,4.0892374 -1.789802,7.6192744 -1.246293,7.9474924 0.157055,0.09484 1.16949,-0.05902 2.249856,-0.341911 4.4675617,-1.169835 6.1026997,-0.896364 7.4984237,1.254088 0.92629,1.427175 0.940205,1.721114 0.189317,3.999182 -0.547785,1.661883 -0.561808,1.902672 -0.231601,3.976749 0.279066,1.752854 0.284748,2.479594 0.02758,3.527064 -0.332723,1.355198 -4.43476,9.876893 -4.78656,9.943743 -0.107872,0.02051 -0.585587,-0.05249 -1.061589,-0.162201 z m 213.408959,-2.19879 c -2.9056,-1.125546 -3.58255,-1.195669 -8.05089,-0.833965 -2.26888,0.183659 -2.4722,0.157925 -3.35454,-0.424624 -1.84232,-1.216358 -1.99704,-1.898159 -2.10385,-9.271619 -0.10989,-7.585863 -0.1115,-7.580083 2.17094,-7.803422 l 1.27473,-0.124733 0.002,2.524437 c 0.004,5.092809 0.96678,10.136104 2.13049,11.165137 0.66612,0.589036 2.22391,0.477946 5.07311,-0.361774 l 1.97272,-0.581406 -0.16413,-0.964338 c -0.0902,-0.530385 -0.23875,-3.589818 -0.33001,-6.798738 L 222.64185,17.0207 h 2.03716 2.03717 l 0.0807,5.572179 c 0.0681,4.705452 0.18193,6.033978 0.73156,8.541086 0.56914,2.596085 0.60986,3.118724 0.3243,4.161985 -0.60574,2.212945 -0.61555,2.215714 -3.66565,1.034194 z M 40.095949,36.91474 c -0.587229,-0.134327 -1.402382,-0.557548 -1.81145,-0.940489 -0.849189,-0.794949 -0.951908,-1.810754 -0.431877,-4.270867 0.256,-1.211061 0.231957,-1.944192 -0.134181,-4.091642 -0.819833,-4.808408 -0.468691,-6.519897 1.564607,-7.626005 0.589272,-0.320561 1.152163,-0.499338 1.250872,-0.397282 0.330567,0.341777 0.996977,5.393314 1.183336,8.969934 0.112007,2.14966 0.330063,3.819399 0.555206,4.251441 0.537453,1.031352 2.031087,1.350012 5.509578,1.175444 3.074509,-0.154293 3.408503,-0.04066 3.826513,1.301934 0.161512,0.51875 0.02244,0.600673 -1.645526,0.969268 -4.34849,0.960956 -7.596555,1.177644 -9.867078,0.658264 z m 76.235031,-0.441198 c -0.20697,-0.39106 -0.5774,-1.417458 -0.82319,-2.280881 -0.24579,-0.863422 -0.49241,-1.710223 -0.54804,-1.881778 -0.0648,-0.199657 -1.09643,0.193159 -2.86654,1.091444 -4.43054,2.248399 -6.79672,2.708473 -8.93772,1.737828 -2.19739,-0.996217 -3.756316,-3.351169 -4.744426,-7.167052 -0.46592,-1.799309 -0.53447,-2.636284 -0.40305,-4.921338 0.35221,-6.124345 3.201036,-12.021827 8.327786,-17.2397394 2.34363,-2.385293 2.25129,-2.355278 4.44508,-1.4449 l 1.11831,0.464078 -2.88872,3.538101 c -1.5888,1.9459564 -3.46732,4.4742904 -4.17449,5.6185214 -2.16502,3.503091 -3.36412,8.288229 -3.09682,12.358138 0.14547,2.2148 0.97565,3.855061 2.54197,5.022405 1.37994,1.028436 3.83777,1.037805 6.05378,0.02307 2.94437,-1.348244 5.83619,-4.772055 5.83619,-6.909824 0,-1.346026 -0.52784,-2.538379 -1.03834,-2.345557 -1.43049,0.540303 -3.03906,0.628923 -4.07367,0.224427 -0.97004,-0.379246 -2.13379,-1.436439 -2.13379,-1.938405 0,-0.317559 3.2249,-1.49161 4.95612,-1.80432 2.16455,-0.390978 3.46295,-0.359307 5.23967,0.127804 2.09603,0.574653 2.28241,0.9577 1.61353,3.316155 -0.71565,2.523409 -0.68512,2.939768 0.30378,4.142145 0.7705,0.936836 0.81415,1.088909 0.51514,1.794263 -0.17968,0.423871 -0.61013,1.030847 -0.95654,1.348834 -0.54707,0.502188 -0.65478,0.921945 -0.81967,3.194414 -0.21056,2.902103 -0.69399,3.833842 -2.26719,4.369708 -0.73158,0.249193 -0.83628,0.21034 -1.17916,-0.437546 z m 20.10153,-0.361704 c -2.83294,-0.985439 -3.03858,-1.018948 -5.0989,-0.830824 -3.93843,0.359609 -5.38386,0.28394 -6.22025,-0.32564 -0.41645,-0.303518 -0.99871,-0.952513 -1.29391,-1.442212 -0.49049,-0.81365 -0.54431,-1.451876 -0.62474,-7.407754 -0.10075,-7.4602 0.002,-8.035827 1.44043,-8.035827 0.48662,0 1.05675,-0.06448 1.26695,-0.143299 0.31514,-0.118162 0.41145,0.514272 0.5491,3.605528 0.31201,7.00746 1.42336,10.435441 3.38317,10.435441 0.37855,0 1.87656,-0.32283 3.32893,-0.717398 l 2.64065,-0.717395 -0.16377,-0.790371 c -0.0901,-0.434703 -0.23575,-3.474847 -0.32372,-6.755878 L 135.15649,17.0207 h 2.04691 2.04692 l 0.003,5.178849 c 0.002,3.841238 0.10938,5.551348 0.41434,6.62106 0.22613,0.793216 0.48236,2.567463 0.5694,3.942769 0.13528,2.137627 0.0849,2.636608 -0.34724,3.437937 l -0.5055,0.937377 -2.95199,-1.026854 z m 7.04264,0.81556 c -1.22822,-0.698885 -2.25794,-4.12374 -2.51624,-8.369009 -0.22222,-3.652252 -0.10657,-3.799093 3.39031,-4.304538 9.0915,-1.314105 13.5494,-1.387983 15.97201,-0.264695 2.02382,0.938383 1.8553,2.235205 -0.53178,4.092322 -0.74315,0.578159 -1.29079,1.125226 -1.21699,1.215706 0.0738,0.09048 0.96428,0.437642 1.97885,0.771475 3.50043,1.151773 5.20072,2.966812 5.64742,6.02856 l 0.1626,1.114436 h -1.47917 c -1.62288,0 -1.52922,0.06213 -3.73585,-2.478248 -2.04827,-2.358068 -3.33087,-2.637248 -8.4446,-1.838111 -1.42048,0.221985 -3.12612,0.488566 -3.79032,0.592405 -1.10352,0.172522 -1.26997,0.301529 -1.93061,1.496299 -1.12724,2.038623 -2.24719,2.659482 -3.50563,1.943398 z m 7.73378,-7.958108 c 2.62315,-1.184225 4.0795,-2.220692 3.56658,-2.538285 -0.91651,-0.567491 -7.3584,-0.04595 -8.87932,0.718879 -0.40376,0.203039 -0.81452,0.682236 -0.91281,1.064883 -0.1438,0.559804 -0.0295,0.821143 0.58517,1.337738 0.66242,0.556751 0.94878,0.623373 2.15615,0.501614 0.76575,-0.07722 2.33366,-0.565397 3.48423,-1.084829 z m 29.50347,7.142548 c -2.83293,-0.985439 -3.03858,-1.018948 -5.09889,-0.830824 -3.93843,0.359609 -5.38386,0.28394 -6.22026,-0.32564 -0.41645,-0.303518 -0.99871,-0.952513 -1.29391,-1.442212 -0.49048,-0.81365 -0.54431,-1.451876 -0.62474,-7.407754 -0.10074,-7.4602 0.002,-8.035827 1.44044,-8.035827 0.48662,0 1.05674,-0.06448 1.26694,-0.143299 0.31514,-0.118162 0.41146,0.514272 0.5491,3.605528 0.31202,7.00746 1.42337,10.435441 3.38317,10.435441 0.37855,0 1.87657,-0.32283 3.32893,-0.717398 l 2.64066,-0.717395 -0.16377,-0.790371 c -0.0901,-0.434703 -0.23575,-3.474847 -0.32373,-6.755878 L 179.43638,17.0207 h 2.04692 2.04692 l 0.003,5.178849 c 0.002,3.841238 0.10938,5.551348 0.41433,6.62106 0.22613,0.793216 0.48236,2.567463 0.56941,3.942769 0.13528,2.137627 0.0849,2.636608 -0.34725,3.437937 l -0.50549,0.937377 -2.952,-1.026854 z m 8.27638,0.848712 c -3.40646,-0.793085 -4.4446,-3.606248 -2.62772,-7.12061 1.02239,-1.977578 4.39566,-5.149633 8.69734,-8.178551 2.80576,-1.975599 3.80691,-2.542927 4.48741,-2.542927 0.7622,0 0.90575,0.110646 1.10561,0.852215 0.12633,0.468719 0.16852,1.08698 0.0937,1.373914 -0.21661,0.831268 -2.43646,2.776607 -5.47322,4.796387 -4.40772,2.931614 -6.30025,5.30043 -5.7032,7.138515 0.23067,0.710134 1.64488,1.30996 3.0885,1.30996 2.45839,0 9.21764,-1.830903 10.7849,-2.921345 0.68279,-0.475065 0.77969,-0.680087 0.64121,-1.356672 -0.0897,-0.43837 -0.19999,-0.833037 -0.24502,-0.877038 -0.045,-0.044 -0.91893,0.153895 -1.94198,0.439764 -2.40118,0.670956 -3.61519,0.663475 -4.51462,-0.02783 -0.65079,-0.500193 -1.66651,-2.026588 -1.45952,-2.193336 0.23649,-0.190519 8.85488,-2.240411 10.04719,-2.389736 1.57047,-0.196684 3.19093,0.375662 3.46662,1.224403 0.0946,0.291284 -0.13903,1.124065 -0.55836,1.99017 -0.69952,1.44481 -0.7154,1.581833 -0.53183,4.587118 l 0.18922,3.097819 -0.62736,0.0026 c -0.34505,0.0013 -1.89896,-0.194289 -3.45313,-0.434944 l -2.82577,-0.437559 -4.47938,0.959385 c -4.35944,0.933695 -6.42311,1.112807 -8.16064,0.70828 z M 18.391321,36.110569 c -0.09096,-0.33184 -0.167039,-0.981441 -0.169054,-1.443556 -0.0071,-1.622055 4.514195,-15.992234 5.261291,-16.722229 0.538519,-0.526193 2.067985,-0.508277 3.2462,0.03802 1.319702,0.611905 2.166501,1.867246 5.020228,7.442251 2.868505,5.603886 4.251914,8.92442 4.003045,9.608342 -0.590748,1.623453 -1.675356,1.750504 -4.60457,0.539377 -1.861186,-0.769535 -2.308502,-0.850081 -4.610605,-0.830218 -2.21898,0.01914 -2.797545,0.126033 -4.463418,0.824585 -2.837891,1.190019 -3.479906,1.284743 -3.683117,0.543423 z m 9.822496,-4.723218 c 1.493151,-0.301346 1.565786,-0.351907 1.412628,-0.983326 -0.337871,-1.392937 -1.524382,-3.383483 -2.895601,-4.857805 l -1.423766,-1.530821 -0.877211,2.04194 c -1.125479,2.619848 -1.371803,4.408515 -0.706098,5.127274 0.57153,0.617078 2.095959,0.68591 4.490048,0.202738 z m 24.259606,4.723218 c -0.09096,-0.33184 -0.16704,-0.981441 -0.169055,-1.443556 -0.0071,-1.622055 4.514196,-15.992234 5.261291,-16.722229 0.538519,-0.526193 2.067987,-0.508277 3.246202,0.03802 1.319702,0.611905 2.1665,1.867246 5.020227,7.442251 2.868505,5.603886 4.251914,8.92442 4.003045,9.608342 -0.590748,1.623453 -1.675355,1.750504 -4.60457,0.539377 -1.861186,-0.769535 -2.308501,-0.850081 -4.610605,-0.830218 -2.218979,0.01914 -2.797545,0.126033 -4.463416,0.824585 -2.837891,1.190019 -3.479907,1.284743 -3.683119,0.543423 z m 9.822497,-4.723218 c 1.49315,-0.301346 1.565785,-0.351907 1.412628,-0.983326 -0.337872,-1.392937 -1.524383,-3.383483 -2.895602,-4.857805 l -1.423765,-1.530821 -0.877212,2.04194 c -1.12548,2.619848 -1.371802,4.408515 -0.706098,5.127274 0.57153,0.617078 2.095958,0.68591 4.490049,0.202738 z M 214.1236,12.187607 c 0,-2.093269 1.46948,-3.6580734 5.42559,-5.7775344 1.86496,-0.999141 2.77604,-1.103155 3.24581,-0.370558 0.91618,1.42878 -4.45682,6.1242784 -7.9334,6.9330524 -0.70234,0.163388 -0.738,0.125458 -0.738,-0.78496 z"
     id="path197" />
</svg>
